<svg width="485" height="572" viewBox="0 0 485 572" fill="none" xmlns="http://www.w3.org/2000/svg">
<g filter="url(#filter0_d_223_18)">
<rect x="13" y="20" width="428" height="55" rx="10" fill="white"/>
</g>
<g filter="url(#filter1_d_223_18)">
<rect x="13" y="113" width="428" height="55" rx="10" fill="white"/>
</g>
<g filter="url(#filter2_d_223_18)">
<rect x="13" y="206" width="428" height="55" rx="10" fill="white"/>
</g>
<g filter="url(#filter3_d_223_18)">
<rect x="13" y="299" width="428" height="55" rx="10" fill="white"/>
</g>
<g filter="url(#filter4_d_223_18)">
<rect x="13" y="392" width="428" height="55" rx="10" fill="white"/>
</g>
<g filter="url(#filter5_d_223_18)">
<rect x="13" y="485" width="428" height="55" rx="10" fill="white"/>
</g>
<g opacity="0.5">
<path d="M422.143 48C425.982 48 429.094 45.7614 429.094 43C429.094 40.2386 425.982 38 422.143 38C418.304 38 415.192 40.2386 415.192 43C415.192 45.7614 418.304 48 422.143 48Z" stroke="black" stroke-width="2"/>
<path d="M429.094 50H429.583C430.6 50.0002 431.581 50.2674 432.343 50.7513C433.105 51.2352 433.595 51.9026 433.721 52.628L434.264 55.752C434.313 56.0334 434.278 56.3191 434.162 56.5901C434.046 56.8611 433.85 57.1112 433.589 57.3238C433.328 57.5364 433.008 57.7066 432.648 57.8232C432.289 57.9398 431.899 58.0001 431.505 58H412.781C412.387 58.0001 411.997 57.9398 411.638 57.8232C411.278 57.7066 410.957 57.5364 410.696 57.3238C410.435 57.1112 410.24 56.8611 410.124 56.5901C410.007 56.3191 409.973 56.0334 410.021 55.752L410.564 52.628C410.69 51.9022 411.18 51.2346 411.943 50.7506C412.705 50.2667 413.687 49.9997 414.704 50H415.192" stroke="black" stroke-width="2" stroke-linecap="round" stroke-linejoin="round"/>
</g>
<g opacity="0.5">
<path d="M424.143 139C427.982 139 431.094 136.761 431.094 134C431.094 131.239 427.982 129 424.143 129C420.304 129 417.192 131.239 417.192 134C417.192 136.761 420.304 139 424.143 139Z" stroke="black" stroke-width="2"/>
<path d="M431.094 141H431.583C432.6 141 433.581 141.267 434.343 141.751C435.105 142.235 435.595 142.903 435.721 143.628L436.264 146.752C436.313 147.033 436.278 147.319 436.162 147.59C436.046 147.861 435.85 148.111 435.589 148.324C435.328 148.536 435.008 148.707 434.648 148.823C434.289 148.94 433.899 149 433.505 149H414.781C414.387 149 413.997 148.94 413.638 148.823C413.278 148.707 412.957 148.536 412.696 148.324C412.435 148.111 412.24 147.861 412.124 147.59C412.007 147.319 411.973 147.033 412.021 146.752L412.564 143.628C412.69 142.902 413.18 142.235 413.943 141.751C414.705 141.267 415.687 141 416.704 141H417.192" stroke="black" stroke-width="2" stroke-linecap="round" stroke-linejoin="round"/>
</g>
<g opacity="0.5">
<path d="M421.143 232C424.982 232 428.094 229.761 428.094 227C428.094 224.239 424.982 222 421.143 222C417.304 222 414.192 224.239 414.192 227C414.192 229.761 417.304 232 421.143 232Z" stroke="black" stroke-width="2"/>
<path d="M428.094 234H428.583C429.6 234 430.581 234.267 431.343 234.751C432.105 235.235 432.595 235.903 432.721 236.628L433.264 239.752C433.313 240.033 433.278 240.319 433.162 240.59C433.046 240.861 432.85 241.111 432.589 241.324C432.328 241.536 432.008 241.707 431.648 241.823C431.289 241.94 430.899 242 430.505 242H411.781C411.387 242 410.997 241.94 410.638 241.823C410.278 241.707 409.957 241.536 409.696 241.324C409.435 241.111 409.24 240.861 409.124 240.59C409.007 240.319 408.973 240.033 409.021 239.752L409.564 236.628C409.69 235.902 410.18 235.235 410.943 234.751C411.705 234.267 412.687 234 413.704 234H414.192" stroke="black" stroke-width="2" stroke-linecap="round" stroke-linejoin="round"/>
</g>
<g opacity="0.5">
<path d="M424.143 324C427.982 324 431.094 321.761 431.094 319C431.094 316.239 427.982 314 424.143 314C420.304 314 417.192 316.239 417.192 319C417.192 321.761 420.304 324 424.143 324Z" stroke="black" stroke-width="2"/>
<path d="M431.094 326H431.583C432.6 326 433.581 326.267 434.343 326.751C435.105 327.235 435.595 327.903 435.721 328.628L436.264 331.752C436.313 332.033 436.278 332.319 436.162 332.59C436.046 332.861 435.85 333.111 435.589 333.324C435.328 333.536 435.008 333.707 434.648 333.823C434.289 333.94 433.899 334 433.505 334H414.781C414.387 334 413.997 333.94 413.638 333.823C413.278 333.707 412.957 333.536 412.696 333.324C412.435 333.111 412.24 332.861 412.124 332.59C412.007 332.319 411.973 332.033 412.021 331.752L412.564 328.628C412.69 327.902 413.18 327.235 413.943 326.751C414.705 326.267 415.687 326 416.704 326H417.192" stroke="black" stroke-width="2" stroke-linecap="round" stroke-linejoin="round"/>
</g>
<g opacity="0.5">
<path d="M424.143 418C427.982 418 431.094 415.761 431.094 413C431.094 410.239 427.982 408 424.143 408C420.304 408 417.192 410.239 417.192 413C417.192 415.761 420.304 418 424.143 418Z" stroke="black" stroke-width="2"/>
<path d="M431.094 420H431.583C432.6 420 433.581 420.267 434.343 420.751C435.105 421.235 435.595 421.903 435.721 422.628L436.264 425.752C436.313 426.033 436.278 426.319 436.162 426.59C436.046 426.861 435.85 427.111 435.589 427.324C435.328 427.536 435.008 427.707 434.648 427.823C434.289 427.94 433.899 428 433.505 428H414.781C414.387 428 413.997 427.94 413.638 427.823C413.278 427.707 412.957 427.536 412.696 427.324C412.435 427.111 412.24 426.861 412.124 426.59C412.007 426.319 411.973 426.033 412.021 425.752L412.564 422.628C412.69 421.902 413.18 421.235 413.943 420.751C414.705 420.267 415.687 420 416.704 420H417.192" stroke="black" stroke-width="2" stroke-linecap="round" stroke-linejoin="round"/>
</g>
<path d="M424.143 507C427.982 507 431.094 504.761 431.094 502C431.094 499.239 427.982 497 424.143 497C420.304 497 417.192 499.239 417.192 502C417.192 504.761 420.304 507 424.143 507Z" stroke="#21E279" stroke-width="2"/>
<path d="M431.094 509H431.583C432.6 509 433.581 509.267 434.343 509.751C435.105 510.235 435.595 510.903 435.721 511.628L436.264 514.752C436.313 515.033 436.278 515.319 436.162 515.59C436.046 515.861 435.85 516.111 435.589 516.324C435.328 516.536 435.008 516.707 434.648 516.823C434.289 516.94 433.899 517 433.505 517H414.781C414.387 517 413.997 516.94 413.638 516.823C413.278 516.707 412.957 516.536 412.696 516.324C412.435 516.111 412.24 515.861 412.124 515.59C412.007 515.319 411.973 515.033 412.021 514.752L412.564 511.628C412.69 510.902 413.18 510.235 413.943 509.751C414.705 509.267 415.687 509 416.704 509H417.192" stroke="#21E279" stroke-width="2" stroke-linecap="round" stroke-linejoin="round"/>
<g opacity="0.5">
<path d="M187.44 41H184.349C184.173 41 184.005 41.1264 183.881 41.3515C183.757 41.5765 183.687 41.8817 183.687 42.2V59.8C183.687 59.9576 183.704 60.1136 183.737 60.2592C183.77 60.4048 183.819 60.5371 183.881 60.6485C183.942 60.76 184.015 60.8484 184.096 60.9087C184.176 60.969 184.262 61 184.349 61H187.44C187.527 61 187.613 60.969 187.693 60.9087C187.774 60.8484 187.847 60.76 187.908 60.6485C187.97 60.5371 188.019 60.4048 188.052 60.2592C188.085 60.1136 188.102 59.9576 188.102 59.8V42.2C188.102 41.8817 188.033 41.5765 187.908 41.3515C187.784 41.1264 187.616 41 187.44 41V41Z" stroke="black" stroke-width="1.5" stroke-linecap="round" stroke-linejoin="round"/>
<path d="M200.687 41H197.596C197.42 41 197.252 41.1264 197.127 41.3515C197.003 41.5765 196.933 41.8817 196.933 42.2V59.8C196.933 59.9576 196.951 60.1136 196.984 60.2592C197.017 60.4048 197.066 60.5371 197.127 60.6485C197.189 60.76 197.262 60.8484 197.342 60.9087C197.423 60.969 197.509 61 197.596 61H200.687C200.774 61 200.86 60.969 200.94 60.9087C201.021 60.8484 201.094 60.76 201.155 60.6485C201.217 60.5371 201.265 60.4048 201.299 60.2592C201.332 60.1136 201.349 59.9576 201.349 59.8V42.2C201.349 41.8817 201.279 41.5765 201.155 41.3515C201.031 41.1264 200.862 41 200.687 41V41Z" stroke="black" stroke-width="1.5" stroke-linecap="round" stroke-linejoin="round"/>
<path d="M180.375 55.8V46.2C180.375 45.8817 180.445 45.5765 180.569 45.3515C180.693 45.1264 180.862 45 181.037 45H183.024C183.2 45 183.368 45.1264 183.493 45.3515C183.617 45.5765 183.687 45.8817 183.687 46.2V55.8C183.687 56.1183 183.617 56.4235 183.493 56.6485C183.368 56.8736 183.2 57 183.024 57H181.037C180.862 57 180.693 56.8736 180.569 56.6485C180.445 56.4235 180.375 56.1183 180.375 55.8V55.8Z" stroke="black" stroke-width="1.5" stroke-linecap="round" stroke-linejoin="round"/>
<path d="M204.661 55.8V46.2C204.661 45.8817 204.591 45.5765 204.467 45.3515C204.343 45.1264 204.174 45 203.998 45H202.011C201.836 45 201.667 45.1264 201.543 45.3515C201.419 45.5765 201.349 45.8817 201.349 46.2V55.8C201.349 56.1183 201.419 56.4235 201.543 56.6485C201.667 56.8736 201.836 57 202.011 57H203.998C204.174 57 204.343 56.8736 204.467 56.6485C204.591 56.4235 204.661 56.1183 204.661 55.8V55.8Z" stroke="black" stroke-width="1.5" stroke-linecap="round" stroke-linejoin="round"/>
<path d="M188.102 51H196.933" stroke="black" stroke-width="1.5" stroke-linecap="round" stroke-linejoin="round"/>
</g>
<g opacity="0.5">
<path d="M187.44 130H184.349C184.173 130 184.005 130.126 183.881 130.351C183.757 130.577 183.687 130.882 183.687 131.2V148.8C183.687 148.958 183.704 149.114 183.737 149.259C183.77 149.405 183.819 149.537 183.881 149.649C183.942 149.76 184.015 149.848 184.096 149.909C184.176 149.969 184.262 150 184.349 150H187.44C187.527 150 187.613 149.969 187.693 149.909C187.774 149.848 187.847 149.76 187.908 149.649C187.97 149.537 188.019 149.405 188.052 149.259C188.085 149.114 188.102 148.958 188.102 148.8V131.2C188.102 130.882 188.033 130.577 187.908 130.351C187.784 130.126 187.616 130 187.44 130V130Z" stroke="black" stroke-width="1.5" stroke-linecap="round" stroke-linejoin="round"/>
<path d="M200.687 130H197.596C197.42 130 197.252 130.126 197.127 130.351C197.003 130.577 196.933 130.882 196.933 131.2V148.8C196.933 148.958 196.951 149.114 196.984 149.259C197.017 149.405 197.066 149.537 197.127 149.649C197.189 149.76 197.262 149.848 197.342 149.909C197.423 149.969 197.509 150 197.596 150H200.687C200.774 150 200.86 149.969 200.94 149.909C201.021 149.848 201.094 149.76 201.155 149.649C201.217 149.537 201.265 149.405 201.299 149.259C201.332 149.114 201.349 148.958 201.349 148.8V131.2C201.349 130.882 201.279 130.577 201.155 130.351C201.031 130.126 200.862 130 200.687 130V130Z" stroke="black" stroke-width="1.5" stroke-linecap="round" stroke-linejoin="round"/>
<path d="M180.375 144.8V135.2C180.375 134.882 180.445 134.577 180.569 134.351C180.693 134.126 180.862 134 181.037 134H183.024C183.2 134 183.368 134.126 183.493 134.351C183.617 134.577 183.687 134.882 183.687 135.2V144.8C183.687 145.118 183.617 145.423 183.493 145.649C183.368 145.874 183.2 146 183.024 146H181.037C180.862 146 180.693 145.874 180.569 145.649C180.445 145.423 180.375 145.118 180.375 144.8V144.8Z" stroke="black" stroke-width="1.5" stroke-linecap="round" stroke-linejoin="round"/>
<path d="M204.661 144.8V135.2C204.661 134.882 204.591 134.577 204.467 134.351C204.343 134.126 204.174 134 203.998 134H202.011C201.836 134 201.667 134.126 201.543 134.351C201.419 134.577 201.349 134.882 201.349 135.2V144.8C201.349 145.118 201.419 145.423 201.543 145.649C201.667 145.874 201.836 146 202.011 146H203.998C204.174 146 204.343 145.874 204.467 145.649C204.591 145.423 204.661 145.118 204.661 144.8V144.8Z" stroke="black" stroke-width="1.5" stroke-linecap="round" stroke-linejoin="round"/>
<path d="M188.102 140H196.933" stroke="black" stroke-width="1.5" stroke-linecap="round" stroke-linejoin="round"/>
</g>
<path d="M184.44 221H181.349C181.173 221 181.005 221.126 180.881 221.351C180.757 221.577 180.687 221.882 180.687 222.2V239.8C180.687 239.958 180.704 240.114 180.737 240.259C180.77 240.405 180.819 240.537 180.881 240.649C180.942 240.76 181.015 240.848 181.096 240.909C181.176 240.969 181.262 241 181.349 241H184.44C184.527 241 184.613 240.969 184.693 240.909C184.774 240.848 184.847 240.76 184.908 240.649C184.97 240.537 185.019 240.405 185.052 240.259C185.085 240.114 185.102 239.958 185.102 239.8V222.2C185.102 221.882 185.033 221.577 184.908 221.351C184.784 221.126 184.616 221 184.44 221V221Z" stroke="#21E279" stroke-width="1.5" stroke-linecap="round" stroke-linejoin="round"/>
<path d="M197.687 221H194.596C194.42 221 194.252 221.126 194.127 221.351C194.003 221.577 193.933 221.882 193.933 222.2V239.8C193.933 239.958 193.951 240.114 193.984 240.259C194.017 240.405 194.066 240.537 194.127 240.649C194.189 240.76 194.262 240.848 194.342 240.909C194.423 240.969 194.509 241 194.596 241H197.687C197.774 241 197.86 240.969 197.94 240.909C198.021 240.848 198.094 240.76 198.155 240.649C198.217 240.537 198.265 240.405 198.299 240.259C198.332 240.114 198.349 239.958 198.349 239.8V222.2C198.349 221.882 198.279 221.577 198.155 221.351C198.031 221.126 197.862 221 197.687 221V221Z" stroke="#21E279" stroke-width="1.5" stroke-linecap="round" stroke-linejoin="round"/>
<path d="M177.375 235.8V226.2C177.375 225.882 177.445 225.577 177.569 225.351C177.693 225.126 177.862 225 178.037 225H180.024C180.2 225 180.368 225.126 180.493 225.351C180.617 225.577 180.687 225.882 180.687 226.2V235.8C180.687 236.118 180.617 236.423 180.493 236.649C180.368 236.874 180.2 237 180.024 237H178.037C177.862 237 177.693 236.874 177.569 236.649C177.445 236.423 177.375 236.118 177.375 235.8V235.8Z" stroke="#21E279" stroke-width="1.5" stroke-linecap="round" stroke-linejoin="round"/>
<path d="M201.661 235.8V226.2C201.661 225.882 201.591 225.577 201.467 225.351C201.343 225.126 201.174 225 200.998 225H199.011C198.836 225 198.667 225.126 198.543 225.351C198.419 225.577 198.349 225.882 198.349 226.2V235.8C198.349 236.118 198.419 236.423 198.543 236.649C198.667 236.874 198.836 237 199.011 237H200.998C201.174 237 201.343 236.874 201.467 236.649C201.591 236.423 201.661 236.118 201.661 235.8V235.8Z" stroke="#21E279" stroke-width="1.5" stroke-linecap="round" stroke-linejoin="round"/>
<path d="M185.102 231H193.933" stroke="#21E279" stroke-width="1.5" stroke-linecap="round" stroke-linejoin="round"/>
<g opacity="0.5">
<path d="M185.628 314H182.537C182.361 314 182.192 314.126 182.068 314.351C181.944 314.577 181.874 314.882 181.874 315.2V332.8C181.874 332.958 181.891 333.114 181.925 333.259C181.958 333.405 182.007 333.537 182.068 333.649C182.13 333.76 182.203 333.848 182.283 333.909C182.363 333.969 182.45 334 182.537 334H185.628C185.714 334 185.801 333.969 185.881 333.909C185.961 333.848 186.034 333.76 186.096 333.649C186.157 333.537 186.206 333.405 186.239 333.259C186.273 333.114 186.29 332.958 186.29 332.8V315.2C186.29 314.882 186.22 314.577 186.096 314.351C185.972 314.126 185.803 314 185.628 314V314Z" stroke="black" stroke-width="1.5" stroke-linecap="round" stroke-linejoin="round"/>
<path d="M198.874 314H195.783C195.608 314 195.439 314.126 195.315 314.351C195.191 314.577 195.121 314.882 195.121 315.2V332.8C195.121 332.958 195.138 333.114 195.171 333.259C195.205 333.405 195.253 333.537 195.315 333.649C195.376 333.76 195.449 333.848 195.53 333.909C195.61 333.969 195.696 334 195.783 334H198.874C198.961 334 199.047 333.969 199.128 333.909C199.208 333.848 199.281 333.76 199.343 333.649C199.404 333.537 199.453 333.405 199.486 333.259C199.519 333.114 199.537 332.958 199.537 332.8V315.2C199.537 314.882 199.467 314.577 199.343 314.351C199.218 314.126 199.05 314 198.874 314V314Z" stroke="black" stroke-width="1.5" stroke-linecap="round" stroke-linejoin="round"/>
<path d="M178.562 328.8V319.2C178.562 318.882 178.632 318.577 178.756 318.351C178.881 318.126 179.049 318 179.225 318H181.212C181.388 318 181.556 318.126 181.68 318.351C181.804 318.577 181.874 318.882 181.874 319.2V328.8C181.874 329.118 181.804 329.423 181.68 329.649C181.556 329.874 181.388 330 181.212 330H179.225C179.049 330 178.881 329.874 178.756 329.649C178.632 329.423 178.562 329.118 178.562 328.8V328.8Z" stroke="black" stroke-width="1.5" stroke-linecap="round" stroke-linejoin="round"/>
<path d="M202.848 328.8V319.2C202.848 318.882 202.779 318.577 202.654 318.351C202.53 318.126 202.362 318 202.186 318H200.199C200.023 318 199.855 318.126 199.731 318.351C199.606 318.577 199.537 318.882 199.537 319.2V328.8C199.537 329.118 199.606 329.423 199.731 329.649C199.855 329.874 200.023 330 200.199 330H202.186C202.362 330 202.53 329.874 202.654 329.649C202.779 329.423 202.848 329.118 202.848 328.8V328.8Z" stroke="black" stroke-width="1.5" stroke-linecap="round" stroke-linejoin="round"/>
<path d="M186.29 324H195.121" stroke="black" stroke-width="1.5" stroke-linecap="round" stroke-linejoin="round"/>
</g>
<g opacity="0.5">
<path d="M187.44 408H184.349C184.173 408 184.005 408.126 183.881 408.351C183.757 408.577 183.687 408.882 183.687 409.2V426.8C183.687 426.958 183.704 427.114 183.737 427.259C183.77 427.405 183.819 427.537 183.881 427.649C183.942 427.76 184.015 427.848 184.096 427.909C184.176 427.969 184.262 428 184.349 428H187.44C187.527 428 187.613 427.969 187.693 427.909C187.774 427.848 187.847 427.76 187.908 427.649C187.97 427.537 188.019 427.405 188.052 427.259C188.085 427.114 188.102 426.958 188.102 426.8V409.2C188.102 408.882 188.033 408.577 187.908 408.351C187.784 408.126 187.616 408 187.44 408V408Z" stroke="black" stroke-width="1.5" stroke-linecap="round" stroke-linejoin="round"/>
<path d="M200.687 408H197.596C197.42 408 197.252 408.126 197.127 408.351C197.003 408.577 196.933 408.882 196.933 409.2V426.8C196.933 426.958 196.951 427.114 196.984 427.259C197.017 427.405 197.066 427.537 197.127 427.649C197.189 427.76 197.262 427.848 197.342 427.909C197.423 427.969 197.509 428 197.596 428H200.687C200.774 428 200.86 427.969 200.94 427.909C201.021 427.848 201.094 427.76 201.155 427.649C201.217 427.537 201.265 427.405 201.299 427.259C201.332 427.114 201.349 426.958 201.349 426.8V409.2C201.349 408.882 201.279 408.577 201.155 408.351C201.031 408.126 200.862 408 200.687 408V408Z" stroke="black" stroke-width="1.5" stroke-linecap="round" stroke-linejoin="round"/>
<path d="M180.375 422.8V413.2C180.375 412.882 180.445 412.577 180.569 412.351C180.693 412.126 180.862 412 181.037 412H183.024C183.2 412 183.368 412.126 183.493 412.351C183.617 412.577 183.687 412.882 183.687 413.2V422.8C183.687 423.118 183.617 423.423 183.493 423.649C183.368 423.874 183.2 424 183.024 424H181.037C180.862 424 180.693 423.874 180.569 423.649C180.445 423.423 180.375 423.118 180.375 422.8V422.8Z" stroke="black" stroke-width="1.5" stroke-linecap="round" stroke-linejoin="round"/>
<path d="M204.661 422.8V413.2C204.661 412.882 204.591 412.577 204.467 412.351C204.343 412.126 204.174 412 203.998 412H202.011C201.836 412 201.667 412.126 201.543 412.351C201.419 412.577 201.349 412.882 201.349 413.2V422.8C201.349 423.118 201.419 423.423 201.543 423.649C201.667 423.874 201.836 424 202.011 424H203.998C204.174 424 204.343 423.874 204.467 423.649C204.591 423.423 204.661 423.118 204.661 422.8V422.8Z" stroke="black" stroke-width="1.5" stroke-linecap="round" stroke-linejoin="round"/>
<path d="M188.102 418H196.933" stroke="black" stroke-width="1.5" stroke-linecap="round" stroke-linejoin="round"/>
</g>
<g opacity="0.5">
<path d="M187.44 501H184.349C184.173 501 184.005 501.126 183.881 501.351C183.757 501.577 183.687 501.882 183.687 502.2V519.8C183.687 519.958 183.704 520.114 183.737 520.259C183.77 520.405 183.819 520.537 183.881 520.649C183.942 520.76 184.015 520.848 184.096 520.909C184.176 520.969 184.262 521 184.349 521H187.44C187.527 521 187.613 520.969 187.693 520.909C187.774 520.848 187.847 520.76 187.908 520.649C187.97 520.537 188.019 520.405 188.052 520.259C188.085 520.114 188.102 519.958 188.102 519.8V502.2C188.102 501.882 188.033 501.577 187.908 501.351C187.784 501.126 187.616 501 187.44 501V501Z" stroke="black" stroke-width="1.5" stroke-linecap="round" stroke-linejoin="round"/>
<path d="M200.687 501H197.596C197.42 501 197.252 501.126 197.127 501.351C197.003 501.577 196.933 501.882 196.933 502.2V519.8C196.933 519.958 196.951 520.114 196.984 520.259C197.017 520.405 197.066 520.537 197.127 520.649C197.189 520.76 197.262 520.848 197.342 520.909C197.423 520.969 197.509 521 197.596 521H200.687C200.774 521 200.86 520.969 200.94 520.909C201.021 520.848 201.094 520.76 201.155 520.649C201.217 520.537 201.265 520.405 201.299 520.259C201.332 520.114 201.349 519.958 201.349 519.8V502.2C201.349 501.882 201.279 501.577 201.155 501.351C201.031 501.126 200.862 501 200.687 501V501Z" stroke="black" stroke-width="1.5" stroke-linecap="round" stroke-linejoin="round"/>
<path d="M180.375 515.8V506.2C180.375 505.882 180.445 505.577 180.569 505.351C180.693 505.126 180.862 505 181.037 505H183.024C183.2 505 183.368 505.126 183.493 505.351C183.617 505.577 183.687 505.882 183.687 506.2V515.8C183.687 516.118 183.617 516.423 183.493 516.649C183.368 516.874 183.2 517 183.024 517H181.037C180.862 517 180.693 516.874 180.569 516.649C180.445 516.423 180.375 516.118 180.375 515.8V515.8Z" stroke="black" stroke-width="1.5" stroke-linecap="round" stroke-linejoin="round"/>
<path d="M204.661 515.8V506.2C204.661 505.882 204.591 505.577 204.467 505.351C204.343 505.126 204.174 505 203.998 505H202.011C201.836 505 201.667 505.126 201.543 505.351C201.419 505.577 201.349 505.882 201.349 506.2V515.8C201.349 516.118 201.419 516.423 201.543 516.649C201.667 516.874 201.836 517 202.011 517H203.998C204.174 517 204.343 516.874 204.467 516.649C204.591 516.423 204.661 516.118 204.661 515.8V515.8Z" stroke="black" stroke-width="1.5" stroke-linecap="round" stroke-linejoin="round"/>
<path d="M188.102 511H196.933" stroke="black" stroke-width="1.5" stroke-linecap="round" stroke-linejoin="round"/>
</g>
<g opacity="0.5">
<path d="M106.455 38.3199L105.912 38V38.0021L105.91 38.005L105.907 38.0143L105.894 38.0451C105.83 38.2051 105.772 38.3676 105.718 38.5324C105.584 38.9405 105.479 39.3611 105.404 39.7898C105.244 40.7352 105.191 42.1357 106.026 43.1197C106.406 43.567 106.458 44.3134 106.315 45.1571C106.23 45.6437 106.098 46.117 105.92 46.5676L105.913 46.5855L105.912 46.5877L106.455 46.9076C106.998 47.2275 106.999 47.2268 106.999 47.2268V47.2253L107.001 47.2225L107.004 47.2132L107.017 47.1824L107.059 47.075C107.259 46.5504 107.409 46.0016 107.506 45.4384C107.667 44.4923 107.719 43.0918 106.885 42.1078C106.505 41.6605 106.452 40.9141 106.596 40.0703C106.68 39.5838 106.813 39.1104 106.99 38.6598L106.998 38.6419L106.999 38.6398L106.455 38.3199Z" fill="black"/>
<path fill-rule="evenodd" clip-rule="evenodd" d="M94.3125 51.5594C94.3125 51.3696 94.3765 51.1876 94.4903 51.0534C94.6042 50.9191 94.7586 50.8438 94.9196 50.8438H117.991C118.152 50.8438 118.307 50.9191 118.42 51.0534C118.534 51.1876 118.598 51.3696 118.598 51.5594C118.598 51.7492 118.534 51.9312 118.42 52.0654C118.307 52.1996 118.152 52.275 117.991 52.275H116.17C116.17 53.7934 115.658 55.2496 114.747 56.3233C113.836 57.397 112.601 58.0002 111.312 58.0002H101.598C100.31 58.0002 99.0746 57.397 98.1637 56.3233C97.2528 55.2496 96.7411 53.7934 96.7411 52.275H94.9196C94.7586 52.275 94.6042 52.1996 94.4903 52.0654C94.3765 51.9312 94.3125 51.7492 94.3125 51.5594ZM97.9554 52.275H114.955C114.955 53.4138 114.572 54.506 113.888 55.3112C113.205 56.1165 112.279 56.5689 111.312 56.5689H101.598C100.632 56.5689 99.7055 56.1165 99.0223 55.3112C98.3392 54.506 97.9554 53.4138 97.9554 52.275Z" fill="black"/>
<path d="M101.094 39.709L101.598 40.1097C102.102 40.5098 102.102 40.5091 102.102 40.5091L102.094 40.5234C102.041 40.6235 101.991 40.7262 101.945 40.8311C101.83 41.0879 101.739 41.3583 101.672 41.6376C101.526 42.276 101.578 42.7798 101.959 43.1119C102.944 43.9721 102.892 45.2581 102.697 46.1104C102.607 46.4891 102.484 46.8557 102.329 47.2039C102.266 47.3475 102.197 47.4879 102.124 47.6247L102.112 47.6476L102.109 47.6526L102.104 47.6612L102.103 47.664L102.102 47.6648C102.102 47.6648 102.102 47.6662 101.598 47.2654C101.095 46.8647 101.094 46.8654 101.094 46.8654L101.102 46.8518L101.135 46.7902C101.163 46.7337 101.205 46.65 101.252 46.5441C101.346 46.3308 101.454 46.0445 101.525 45.7368C101.67 45.0985 101.618 44.5954 101.237 44.2626C100.252 43.4024 100.304 42.1171 100.5 41.2641C100.6 40.8261 100.748 40.4411 100.867 40.1706C100.935 40.0175 101.009 39.868 101.088 39.7226L101.092 39.714L101.094 39.7104L101.095 39.709H101.094Z" fill="black"/>
<path d="M111.92 40.109C111.416 39.7083 111.416 39.709 111.416 39.709V39.7104L111.413 39.714L111.408 39.7226C111.328 39.867 111.255 40.0165 111.189 40.1706C111.07 40.4411 110.921 40.8261 110.821 41.2641C110.626 42.1164 110.574 43.4024 111.558 44.2626C111.94 44.5954 111.992 45.0985 111.846 45.7368C111.775 46.0445 111.667 46.3308 111.572 46.5441C111.526 46.649 111.477 46.7517 111.424 46.8518L111.416 46.8661L111.92 47.2654C112.423 47.6662 112.424 47.6648 112.424 47.6648V47.664L112.426 47.6612L112.431 47.6526L112.44 47.6347L112.446 47.6247C112.519 47.4879 112.588 47.3475 112.651 47.2039C112.77 46.9334 112.918 46.5484 113.018 46.1104C113.213 45.2581 113.266 43.9721 112.281 43.1119C111.9 42.7791 111.847 42.276 111.994 41.6376C112.064 41.3299 112.172 41.0437 112.267 40.8304C112.313 40.7255 112.363 40.6228 112.416 40.5227L112.423 40.5091L111.92 40.109Z" fill="black"/>
</g>
<path d="M102.143 127.32L101.599 127V127.002L101.598 127.005L101.594 127.014L101.581 127.045C101.518 127.205 101.459 127.368 101.405 127.532C101.271 127.941 101.166 128.361 101.092 128.79C100.932 129.735 100.879 131.136 101.714 132.12C102.093 132.567 102.146 133.313 102.003 134.157C101.918 134.644 101.785 135.117 101.608 135.568L101.601 135.586L101.599 135.588L102.143 135.908C102.686 136.227 102.686 136.227 102.686 136.227V136.225L102.688 136.222L102.692 136.213L102.704 136.182L102.747 136.075C102.946 135.55 103.096 135.002 103.194 134.438C103.354 133.492 103.407 132.092 102.572 131.108C102.193 130.661 102.14 129.914 102.283 129.07C102.368 128.584 102.5 128.11 102.678 127.66L102.685 127.642L102.686 127.64L102.143 127.32Z" fill="#21E279"/>
<path fill-rule="evenodd" clip-rule="evenodd" d="M90 140.559C90 140.37 90.064 140.188 90.1778 140.053C90.2917 139.919 90.4461 139.844 90.6071 139.844H113.679C113.84 139.844 113.994 139.919 114.108 140.053C114.222 140.188 114.286 140.37 114.286 140.559C114.286 140.749 114.222 140.931 114.108 141.065C113.994 141.2 113.84 141.275 113.679 141.275H111.857C111.857 142.793 111.345 144.25 110.435 145.323C109.524 146.397 108.288 147 107 147H97.2857C95.9975 147 94.7621 146.397 93.8512 145.323C92.9403 144.25 92.4286 142.793 92.4286 141.275H90.6071C90.4461 141.275 90.2917 141.2 90.1778 141.065C90.064 140.931 90 140.749 90 140.559ZM93.6429 141.275H110.643C110.643 142.414 110.259 143.506 109.576 144.311C108.893 145.116 107.966 145.569 107 145.569H97.2857C96.3196 145.569 95.393 145.116 94.7098 144.311C94.0267 143.506 93.6429 142.414 93.6429 141.275Z" fill="#21E279"/>
<path d="M96.7818 128.709L97.2857 129.11C97.789 129.51 97.7896 129.509 97.7896 129.509L97.7817 129.523C97.7285 129.624 97.6786 129.726 97.6324 129.831C97.5176 130.088 97.426 130.358 97.3592 130.638C97.2135 131.276 97.2657 131.78 97.647 132.112C98.6317 132.972 98.5795 134.258 98.384 135.11C98.2947 135.489 98.1716 135.856 98.0167 136.204C97.9534 136.347 97.8849 136.488 97.8115 136.625L97.7994 136.648L97.7963 136.653L97.7915 136.661L97.7902 136.664L97.7896 136.665C97.7896 136.665 97.789 136.666 97.2857 136.265C96.7824 135.865 96.7818 135.865 96.7818 135.865L96.7897 135.852L96.8225 135.79C96.851 135.734 96.8923 135.65 96.939 135.544C97.0331 135.331 97.1412 135.045 97.2122 134.737C97.358 134.098 97.3057 133.595 96.9245 133.263C95.9397 132.402 95.9919 131.117 96.1874 130.264C96.2876 129.826 96.4357 129.441 96.5547 129.171C96.6225 129.017 96.696 128.868 96.7751 128.723L96.7794 128.714L96.7812 128.71L96.7824 128.709H96.7818Z" fill="#21E279"/>
<path d="M107.607 129.109C107.104 128.708 107.103 128.709 107.103 128.709V128.71L107.101 128.714L107.096 128.723C107.016 128.867 106.942 129.017 106.876 129.171C106.757 129.441 106.609 129.826 106.509 130.264C106.313 131.116 106.261 132.402 107.246 133.263C107.627 133.595 107.679 134.098 107.533 134.737C107.463 135.045 107.355 135.331 107.26 135.544C107.214 135.649 107.164 135.752 107.111 135.852L107.104 135.866L107.607 136.265C108.11 136.666 108.111 136.665 108.111 136.665V136.664L108.113 136.661L108.118 136.653L108.127 136.635L108.134 136.625C108.207 136.488 108.275 136.347 108.339 136.204C108.457 135.933 108.605 135.548 108.705 135.11C108.901 134.258 108.953 132.972 107.968 132.112C107.587 131.779 107.535 131.276 107.681 130.638C107.752 130.33 107.86 130.044 107.954 129.83C108 129.725 108.05 129.623 108.103 129.523L108.11 129.509L107.607 129.109Z" fill="#21E279"/>
<g opacity="0.5">
<path d="M103.455 222.32L102.912 222V222.002L102.91 222.005L102.907 222.014L102.894 222.045C102.83 222.205 102.772 222.368 102.718 222.532C102.584 222.941 102.479 223.361 102.404 223.79C102.244 224.735 102.191 226.136 103.026 227.12C103.406 227.567 103.458 228.313 103.315 229.157C103.23 229.644 103.098 230.117 102.92 230.568L102.913 230.586L102.912 230.588L103.455 230.908C103.998 231.227 103.999 231.227 103.999 231.227V231.225L104.001 231.222L104.004 231.213L104.017 231.182L104.059 231.075C104.259 230.55 104.409 230.002 104.506 229.438C104.667 228.492 104.719 227.092 103.885 226.108C103.505 225.661 103.452 224.914 103.596 224.07C103.68 223.584 103.813 223.11 103.99 222.66L103.998 222.642L103.999 222.64L103.455 222.32Z" fill="black"/>
<path fill-rule="evenodd" clip-rule="evenodd" d="M91.3125 235.559C91.3125 235.37 91.3765 235.188 91.4903 235.053C91.6042 234.919 91.7586 234.844 91.9196 234.844H114.991C115.152 234.844 115.307 234.919 115.42 235.053C115.534 235.188 115.598 235.37 115.598 235.559C115.598 235.749 115.534 235.931 115.42 236.065C115.307 236.2 115.152 236.275 114.991 236.275H113.17C113.17 237.793 112.658 239.25 111.747 240.323C110.836 241.397 109.601 242 108.312 242H98.5982C97.31 242 96.0746 241.397 95.1637 240.323C94.2528 239.25 93.7411 237.793 93.7411 236.275H91.9196C91.7586 236.275 91.6042 236.2 91.4903 236.065C91.3765 235.931 91.3125 235.749 91.3125 235.559ZM94.9554 236.275H111.955C111.955 237.414 111.572 238.506 110.888 239.311C110.205 240.116 109.279 240.569 108.312 240.569H98.5982C97.6321 240.569 96.7055 240.116 96.0223 239.311C95.3392 238.506 94.9554 237.414 94.9554 236.275Z" fill="black"/>
<path d="M98.0943 223.709L98.5982 224.11C99.1015 224.51 99.1021 224.509 99.1021 224.509L99.0942 224.523C99.041 224.624 98.9911 224.726 98.9449 224.831C98.8301 225.088 98.7385 225.358 98.6717 225.638C98.526 226.276 98.5782 226.78 98.9595 227.112C99.9442 227.972 99.892 229.258 99.6965 230.11C99.6072 230.489 99.4841 230.856 99.3292 231.204C99.2659 231.347 99.1974 231.488 99.124 231.625L99.1119 231.648L99.1088 231.653L99.104 231.661L99.1027 231.664L99.1021 231.665C99.1021 231.665 99.1015 231.666 98.5982 231.265C98.0949 230.865 98.0943 230.865 98.0943 230.865L98.1022 230.852L98.135 230.79C98.1635 230.734 98.2048 230.65 98.2515 230.544C98.3456 230.331 98.4537 230.045 98.5247 229.737C98.6705 229.098 98.6182 228.595 98.237 228.263C97.2522 227.402 97.3044 226.117 97.4999 225.264C97.6001 224.826 97.7482 224.441 97.8672 224.171C97.935 224.017 98.0085 223.868 98.0876 223.723L98.0919 223.714L98.0937 223.71L98.0949 223.709H98.0943Z" fill="black"/>
<path d="M108.92 224.109C108.416 223.708 108.416 223.709 108.416 223.709V223.71L108.413 223.714L108.408 223.723C108.328 223.867 108.255 224.017 108.189 224.171C108.07 224.441 107.921 224.826 107.821 225.264C107.626 226.116 107.574 227.402 108.558 228.263C108.94 228.595 108.992 229.098 108.846 229.737C108.775 230.045 108.667 230.331 108.572 230.544C108.526 230.649 108.477 230.752 108.424 230.852L108.416 230.866L108.92 231.265C109.423 231.666 109.424 231.665 109.424 231.665V231.664L109.426 231.661L109.431 231.653L109.44 231.635L109.446 231.625C109.519 231.488 109.588 231.347 109.651 231.204C109.77 230.933 109.918 230.548 110.018 230.11C110.213 229.258 110.266 227.972 109.281 227.112C108.9 226.779 108.847 226.276 108.994 225.638C109.064 225.33 109.172 225.044 109.267 224.83C109.313 224.725 109.363 224.623 109.416 224.523L109.423 224.509L108.92 224.109Z" fill="black"/>
</g>
<g opacity="0.5">
<path d="M102.821 314.32L102.278 314V314.002L102.276 314.005L102.272 314.014L102.26 314.045C102.196 314.205 102.138 314.368 102.084 314.532C101.95 314.941 101.845 315.361 101.77 315.79C101.61 316.735 101.557 318.136 102.392 319.12C102.772 319.567 102.824 320.313 102.681 321.157C102.596 321.644 102.464 322.117 102.286 322.568L102.279 322.586L102.278 322.588L102.821 322.908C103.364 323.227 103.365 323.227 103.365 323.227V323.225L103.367 323.222L103.37 323.213L103.383 323.182L103.425 323.075C103.625 322.55 103.775 322.002 103.872 321.438C104.033 320.492 104.085 319.092 103.251 318.108C102.871 317.661 102.818 316.914 102.962 316.07C103.046 315.584 103.179 315.11 103.356 314.66L103.364 314.642L103.365 314.64L102.821 314.32Z" fill="black"/>
<path fill-rule="evenodd" clip-rule="evenodd" d="M90.6785 327.559C90.6785 327.37 90.7424 327.188 90.8563 327.053C90.9702 326.919 91.1246 326.844 91.2856 326.844H114.357C114.518 326.844 114.672 326.919 114.786 327.053C114.9 327.188 114.964 327.37 114.964 327.559C114.964 327.749 114.9 327.931 114.786 328.065C114.672 328.2 114.518 328.275 114.357 328.275H112.536C112.536 329.793 112.024 331.25 111.113 332.323C110.202 333.397 108.967 334 107.678 334H97.9642C96.676 334 95.4406 333.397 94.5297 332.323C93.6188 331.25 93.107 329.793 93.107 328.275H91.2856C91.1246 328.275 90.9702 328.2 90.8563 328.065C90.7424 327.931 90.6785 327.749 90.6785 327.559ZM94.3213 328.275H111.321C111.321 329.414 110.938 330.506 110.254 331.311C109.571 332.116 108.645 332.569 107.678 332.569H97.9642C96.998 332.569 96.0715 332.116 95.3883 331.311C94.7051 330.506 94.3213 329.414 94.3213 328.275Z" fill="black"/>
<path d="M97.4603 315.709L97.9642 316.11C98.4676 316.51 98.4682 316.509 98.4682 316.509L98.4603 316.523C98.407 316.624 98.3572 316.726 98.3109 316.831C98.1961 317.088 98.1046 317.358 98.0377 317.638C97.892 318.276 97.9442 318.78 98.3255 319.112C99.3103 319.972 99.2581 321.258 99.0626 322.11C98.9732 322.489 98.8501 322.856 98.6952 323.204C98.6319 323.347 98.5634 323.488 98.49 323.625L98.4779 323.648L98.4748 323.653L98.47 323.661L98.4688 323.664L98.4682 323.665C98.4682 323.665 98.4676 323.666 97.9642 323.265C97.4609 322.865 97.4603 322.865 97.4603 322.865L97.4682 322.852L97.501 322.79C97.5295 322.734 97.5708 322.65 97.6176 322.544C97.7117 322.331 97.8197 322.045 97.8908 321.737C98.0365 321.098 97.9843 320.595 97.603 320.263C96.6182 319.402 96.6704 318.117 96.8659 317.264C96.9661 316.826 97.1142 316.441 97.2332 316.171C97.301 316.017 97.3746 315.868 97.4536 315.723L97.4579 315.714L97.4597 315.71L97.4609 315.709H97.4603Z" fill="black"/>
<path d="M108.286 316.109C107.782 315.708 107.782 315.709 107.782 315.709V315.71L107.779 315.714L107.774 315.723C107.694 315.867 107.621 316.017 107.555 316.171C107.436 316.441 107.288 316.826 107.187 317.264C106.992 318.116 106.94 319.402 107.924 320.263C108.306 320.595 108.358 321.098 108.212 321.737C108.141 322.045 108.033 322.331 107.938 322.544C107.892 322.649 107.843 322.752 107.79 322.852L107.782 322.866L108.286 323.265C108.789 323.666 108.79 323.665 108.79 323.665V323.664L108.792 323.661L108.797 323.653L108.806 323.635L108.812 323.625C108.885 323.488 108.954 323.347 109.017 323.204C109.136 322.933 109.284 322.548 109.384 322.11C109.579 321.258 109.632 319.972 108.647 319.112C108.266 318.779 108.213 318.276 108.36 317.638C108.43 317.33 108.538 317.044 108.633 316.83C108.679 316.725 108.729 316.623 108.782 316.523L108.789 316.509L108.286 316.109Z" fill="black"/>
</g>
<g opacity="0.5">
<path d="M105.393 408.32L104.849 408V408.002L104.848 408.005L104.844 408.014L104.831 408.045C104.768 408.205 104.709 408.368 104.655 408.532C104.521 408.941 104.416 409.361 104.342 409.79C104.182 410.735 104.129 412.136 104.964 413.12C105.343 413.567 105.396 414.313 105.253 415.157C105.168 415.644 105.035 416.117 104.858 416.568L104.851 416.586L104.849 416.588L105.393 416.908C105.936 417.227 105.936 417.227 105.936 417.227V417.225L105.938 417.222L105.942 417.213L105.954 417.182L105.997 417.075C106.196 416.55 106.346 416.002 106.444 415.438C106.604 414.492 106.657 413.092 105.822 412.108C105.443 411.661 105.39 410.914 105.533 410.07C105.618 409.584 105.75 409.11 105.928 408.66L105.935 408.642L105.936 408.64L105.393 408.32Z" fill="black"/>
<path fill-rule="evenodd" clip-rule="evenodd" d="M93.25 421.559C93.25 421.37 93.314 421.188 93.4278 421.053C93.5417 420.919 93.6961 420.844 93.8571 420.844H116.929C117.09 420.844 117.244 420.919 117.358 421.053C117.472 421.188 117.536 421.37 117.536 421.559C117.536 421.749 117.472 421.931 117.358 422.065C117.244 422.2 117.09 422.275 116.929 422.275H115.107C115.107 423.793 114.595 425.25 113.685 426.323C112.774 427.397 111.538 428 110.25 428H100.536C99.2475 428 98.0121 427.397 97.1012 426.323C96.1903 425.25 95.6786 423.793 95.6786 422.275H93.8571C93.6961 422.275 93.5417 422.2 93.4278 422.065C93.314 421.931 93.25 421.749 93.25 421.559ZM96.8929 422.275H113.893C113.893 423.414 113.509 424.506 112.826 425.311C112.143 426.116 111.216 426.569 110.25 426.569H100.536C99.5696 426.569 98.643 426.116 97.9598 425.311C97.2767 424.506 96.8929 423.414 96.8929 422.275Z" fill="black"/>
<path d="M100.032 409.709L100.536 410.11C101.039 410.51 101.04 410.509 101.04 410.509L101.032 410.523C100.978 410.624 100.929 410.726 100.882 410.831C100.768 411.088 100.676 411.358 100.609 411.638C100.463 412.276 100.516 412.78 100.897 413.112C101.882 413.972 101.83 415.258 101.634 416.11C101.545 416.489 101.422 416.856 101.267 417.204C101.203 417.347 101.135 417.488 101.061 417.625L101.049 417.648L101.046 417.653L101.041 417.661L101.04 417.664L101.04 417.665C101.04 417.665 101.039 417.666 100.536 417.265C100.032 416.865 100.032 416.865 100.032 416.865L100.04 416.852L100.072 416.79C100.101 416.734 100.142 416.65 100.189 416.544C100.283 416.331 100.391 416.045 100.462 415.737C100.608 415.098 100.556 414.595 100.174 414.263C99.1897 413.402 99.2419 412.117 99.4374 411.264C99.5376 410.826 99.6857 410.441 99.8047 410.171C99.8725 410.017 99.946 409.868 100.025 409.723L100.029 409.714L100.031 409.71L100.032 409.709H100.032Z" fill="black"/>
<path d="M110.857 410.109C110.354 409.708 110.353 409.709 110.353 409.709V409.71L110.351 409.714L110.346 409.723C110.266 409.867 110.192 410.017 110.126 410.171C110.007 410.441 109.859 410.826 109.759 411.264C109.563 412.116 109.511 413.402 110.496 414.263C110.877 414.595 110.929 415.098 110.783 415.737C110.713 416.045 110.605 416.331 110.51 416.544C110.464 416.649 110.414 416.752 110.361 416.852L110.354 416.866L110.857 417.265C111.36 417.666 111.361 417.665 111.361 417.665V417.664L111.363 417.661L111.368 417.653L111.377 417.635L111.384 417.625C111.457 417.488 111.525 417.347 111.589 417.204C111.707 416.933 111.855 416.548 111.955 416.11C112.151 415.258 112.203 413.972 111.218 413.112C110.837 412.779 110.785 412.276 110.931 411.638C111.002 411.33 111.11 411.044 111.204 410.83C111.25 410.725 111.3 410.623 111.353 410.523L111.36 410.509L110.857 410.109Z" fill="black"/>
</g>
<g opacity="0.5">
<path d="M108.58 501.32L108.037 501V501.002L108.035 501.005L108.032 501.014L108.019 501.045C107.955 501.205 107.897 501.368 107.843 501.532C107.709 501.941 107.604 502.361 107.529 502.79C107.369 503.735 107.316 505.136 108.151 506.12C108.531 506.567 108.583 507.313 108.44 508.157C108.355 508.644 108.223 509.117 108.045 509.568L108.038 509.586L108.037 509.588L108.58 509.908C109.123 510.227 109.124 510.227 109.124 510.227V510.225L109.126 510.222L109.129 510.213L109.142 510.182L109.184 510.075C109.384 509.55 109.534 509.002 109.631 508.438C109.792 507.492 109.844 506.092 109.01 505.108C108.63 504.661 108.577 503.914 108.721 503.07C108.805 502.584 108.938 502.11 109.115 501.66L109.123 501.642L109.124 501.64L108.58 501.32Z" fill="black"/>
<path fill-rule="evenodd" clip-rule="evenodd" d="M96.4375 514.559C96.4375 514.37 96.5015 514.188 96.6153 514.053C96.7292 513.919 96.8836 513.844 97.0446 513.844H120.116C120.277 513.844 120.432 513.919 120.545 514.053C120.659 514.188 120.723 514.37 120.723 514.559C120.723 514.749 120.659 514.931 120.545 515.065C120.432 515.2 120.277 515.275 120.116 515.275H118.295C118.295 516.793 117.783 518.25 116.872 519.323C115.961 520.397 114.726 521 113.438 521H103.723C102.435 521 101.2 520.397 100.289 519.323C99.3778 518.25 98.8661 516.793 98.8661 515.275H97.0446C96.8836 515.275 96.7292 515.2 96.6153 515.065C96.5015 514.931 96.4375 514.749 96.4375 514.559ZM100.08 515.275H117.08C117.08 516.414 116.697 517.506 116.013 518.311C115.33 519.116 114.404 519.569 113.438 519.569H103.723C102.757 519.569 101.83 519.116 101.147 518.311C100.464 517.506 100.08 516.414 100.08 515.275Z" fill="black"/>
<path d="M103.219 502.709L103.723 503.11C104.227 503.51 104.227 503.509 104.227 503.509L104.219 503.523C104.166 503.624 104.116 503.726 104.07 503.831C103.955 504.088 103.864 504.358 103.797 504.638C103.651 505.276 103.703 505.78 104.084 506.112C105.069 506.972 105.017 508.258 104.822 509.11C104.732 509.489 104.609 509.856 104.454 510.204C104.391 510.347 104.322 510.488 104.249 510.625L104.237 510.648L104.234 510.653L104.229 510.661L104.228 510.664L104.227 510.665C104.227 510.665 104.227 510.666 103.723 510.265C103.22 509.865 103.219 509.865 103.219 509.865L103.227 509.852L103.26 509.79C103.288 509.734 103.33 509.65 103.377 509.544C103.471 509.331 103.579 509.045 103.65 508.737C103.795 508.098 103.743 507.595 103.362 507.263C102.377 506.402 102.429 505.117 102.625 504.264C102.725 503.826 102.873 503.441 102.992 503.171C103.06 503.017 103.134 502.868 103.213 502.723L103.217 502.714L103.219 502.71L103.22 502.709H103.219Z" fill="black"/>
<path d="M114.045 503.109C113.541 502.708 113.541 502.709 113.541 502.709V502.71L113.538 502.714L113.533 502.723C113.453 502.867 113.38 503.017 113.314 503.171C113.195 503.441 113.046 503.826 112.946 504.264C112.751 505.116 112.699 506.402 113.683 507.263C114.065 507.595 114.117 508.098 113.971 508.737C113.9 509.045 113.792 509.331 113.697 509.544C113.651 509.649 113.602 509.752 113.549 509.852L113.541 509.866L114.045 510.265C114.548 510.666 114.549 510.665 114.549 510.665V510.664L114.551 510.661L114.556 510.653L114.565 510.635L114.571 510.625C114.644 510.488 114.713 510.347 114.776 510.204C114.895 509.933 115.043 509.548 115.143 509.11C115.338 508.258 115.391 506.972 114.406 506.112C114.025 505.779 113.972 505.276 114.119 504.638C114.189 504.33 114.297 504.044 114.392 503.83C114.438 503.725 114.488 503.623 114.541 503.523L114.548 503.509L114.045 503.109Z" fill="black"/>
</g>
<path opacity="0.5" d="M285.562 43H281.92V41.5C281.92 41.3674 281.856 41.2402 281.742 41.1464C281.628 41.0527 281.474 41 281.312 41C281.151 41 280.997 41.0527 280.883 41.1464C280.769 41.2402 280.705 41.3674 280.705 41.5V43H272.205V41.5C272.205 41.3674 272.141 41.2402 272.028 41.1464C271.914 41.0527 271.759 41 271.598 41C271.437 41 271.283 41.0527 271.169 41.1464C271.055 41.2402 270.991 41.3674 270.991 41.5V43H267.348C266.543 43.0008 265.772 43.2644 265.203 43.7331C264.634 44.2018 264.313 44.8372 264.312 45.5V58.5C264.313 59.1628 264.634 59.7982 265.203 60.2669C265.772 60.7356 266.543 60.9992 267.348 61H285.562C286.367 60.9995 287.139 60.7359 287.708 60.2672C288.278 59.7985 288.598 59.1629 288.598 58.5V45.5C288.598 44.8371 288.278 44.2015 287.708 43.7328C287.139 43.2641 286.367 43.0005 285.562 43ZM287.384 58.5C287.384 59.328 286.568 60 285.562 60H267.348C266.34 60 265.527 59.328 265.527 58.5V50H287.384V58.5ZM287.384 49H265.527V45.5C265.527 44.672 266.34 44 267.348 44H270.991V45.5C270.991 45.6326 271.055 45.7598 271.169 45.8536C271.283 45.9473 271.437 46 271.598 46C271.759 46 271.914 45.9473 272.028 45.8536C272.141 45.7598 272.205 45.6326 272.205 45.5V44H280.705V45.5C280.705 45.6326 280.769 45.7598 280.883 45.8536C280.997 45.9473 281.151 46 281.312 46C281.474 46 281.628 45.9473 281.742 45.8536C281.856 45.7598 281.92 45.6326 281.92 45.5V44H285.562C286.568 44 287.384 44.672 287.384 45.5V49Z" fill="black"/>
<path opacity="0.5" d="M285.562 132H281.92V130.5C281.92 130.367 281.856 130.24 281.742 130.146C281.628 130.053 281.474 130 281.312 130C281.151 130 280.997 130.053 280.883 130.146C280.769 130.24 280.705 130.367 280.705 130.5V132H272.205V130.5C272.205 130.367 272.141 130.24 272.028 130.146C271.914 130.053 271.759 130 271.598 130C271.437 130 271.283 130.053 271.169 130.146C271.055 130.24 270.991 130.367 270.991 130.5V132H267.348C266.543 132.001 265.772 132.264 265.203 132.733C264.634 133.202 264.313 133.837 264.312 134.5V147.5C264.313 148.163 264.634 148.798 265.203 149.267C265.772 149.736 266.543 149.999 267.348 150H285.562C286.367 149.999 287.139 149.736 287.708 149.267C288.278 148.798 288.598 148.163 288.598 147.5V134.5C288.598 133.837 288.278 133.202 287.708 132.733C287.139 132.264 286.367 132.001 285.562 132ZM287.384 147.5C287.384 148.328 286.568 149 285.562 149H267.348C266.34 149 265.527 148.328 265.527 147.5V139H287.384V147.5ZM287.384 138H265.527V134.5C265.527 133.672 266.34 133 267.348 133H270.991V134.5C270.991 134.633 271.055 134.76 271.169 134.854C271.283 134.947 271.437 135 271.598 135C271.759 135 271.914 134.947 272.028 134.854C272.141 134.76 272.205 134.633 272.205 134.5V133H280.705V134.5C280.705 134.633 280.769 134.76 280.883 134.854C280.997 134.947 281.151 135 281.312 135C281.474 135 281.628 134.947 281.742 134.854C281.856 134.76 281.92 134.633 281.92 134.5V133H285.562C286.568 133 287.384 133.672 287.384 134.5V138Z" fill="black"/>
<path opacity="0.5" d="M282.562 224H278.92V222.5C278.92 222.367 278.856 222.24 278.742 222.146C278.628 222.053 278.474 222 278.312 222C278.151 222 277.997 222.053 277.883 222.146C277.769 222.24 277.705 222.367 277.705 222.5V224H269.205V222.5C269.205 222.367 269.141 222.24 269.028 222.146C268.914 222.053 268.759 222 268.598 222C268.437 222 268.283 222.053 268.169 222.146C268.055 222.24 267.991 222.367 267.991 222.5V224H264.348C263.543 224.001 262.772 224.264 262.203 224.733C261.634 225.202 261.313 225.837 261.312 226.5V239.5C261.313 240.163 261.634 240.798 262.203 241.267C262.772 241.736 263.543 241.999 264.348 242H282.562C283.367 241.999 284.139 241.736 284.708 241.267C285.278 240.798 285.598 240.163 285.598 239.5V226.5C285.598 225.837 285.278 225.202 284.708 224.733C284.139 224.264 283.367 224.001 282.562 224ZM284.384 239.5C284.384 240.328 283.568 241 282.562 241H264.348C263.34 241 262.527 240.328 262.527 239.5V231H284.384V239.5ZM284.384 230H262.527V226.5C262.527 225.672 263.34 225 264.348 225H267.991V226.5C267.991 226.633 268.055 226.76 268.169 226.854C268.283 226.947 268.437 227 268.598 227C268.759 227 268.914 226.947 269.028 226.854C269.141 226.76 269.205 226.633 269.205 226.5V225H277.705V226.5C277.705 226.633 277.769 226.76 277.883 226.854C277.997 226.947 278.151 227 278.312 227C278.474 227 278.628 226.947 278.742 226.854C278.856 226.76 278.92 226.633 278.92 226.5V225H282.562C283.568 225 284.384 225.672 284.384 226.5V230Z" fill="black"/>
<path d="M273.25 315H269.607V313.5C269.607 313.367 269.543 313.24 269.429 313.146C269.315 313.053 269.161 313 269 313C268.839 313 268.685 313.053 268.571 313.146C268.457 313.24 268.393 313.367 268.393 313.5V315H259.893V313.5C259.893 313.367 259.829 313.24 259.715 313.146C259.601 313.053 259.447 313 259.286 313C259.125 313 258.97 313.053 258.856 313.146C258.743 313.24 258.679 313.367 258.679 313.5V315H255.036C254.231 315.001 253.459 315.264 252.89 315.733C252.321 316.202 252.001 316.837 252 317.5V330.5C252.001 331.163 252.321 331.798 252.89 332.267C253.459 332.736 254.231 332.999 255.036 333H273.25C274.055 332.999 274.827 332.736 275.396 332.267C275.965 331.798 276.285 331.163 276.286 330.5V317.5C276.285 316.837 275.965 316.202 275.396 315.733C274.827 315.264 274.055 315.001 273.25 315ZM275.071 330.5C275.071 331.328 274.255 332 273.25 332H255.036C254.028 332 253.214 331.328 253.214 330.5V322H275.071V330.5ZM275.071 321H253.214V317.5C253.214 316.672 254.028 316 255.036 316H258.679V317.5C258.679 317.633 258.743 317.76 258.856 317.854C258.97 317.947 259.125 318 259.286 318C259.447 318 259.601 317.947 259.715 317.854C259.829 317.76 259.893 317.633 259.893 317.5V316H268.393V317.5C268.393 317.633 268.457 317.76 268.571 317.854C268.685 317.947 268.839 318 269 318C269.161 318 269.315 317.947 269.429 317.854C269.543 317.76 269.607 317.633 269.607 317.5V316H273.25C274.255 316 275.071 316.672 275.071 317.5V321Z" fill="#21E279"/>
<path opacity="0.5" d="M277.25 411H273.607V409.5C273.607 409.367 273.543 409.24 273.429 409.146C273.315 409.053 273.161 409 273 409C272.839 409 272.685 409.053 272.571 409.146C272.457 409.24 272.393 409.367 272.393 409.5V411H263.893V409.5C263.893 409.367 263.829 409.24 263.715 409.146C263.601 409.053 263.447 409 263.286 409C263.125 409 262.97 409.053 262.856 409.146C262.743 409.24 262.679 409.367 262.679 409.5V411H259.036C258.231 411.001 257.459 411.264 256.89 411.733C256.321 412.202 256.001 412.837 256 413.5V426.5C256.001 427.163 256.321 427.798 256.89 428.267C257.459 428.736 258.231 428.999 259.036 429H277.25C278.055 428.999 278.827 428.736 279.396 428.267C279.965 427.798 280.285 427.163 280.286 426.5V413.5C280.285 412.837 279.965 412.202 279.396 411.733C278.827 411.264 278.055 411.001 277.25 411ZM279.071 426.5C279.071 427.328 278.255 428 277.25 428H259.036C258.028 428 257.214 427.328 257.214 426.5V418H279.071V426.5ZM279.071 417H257.214V413.5C257.214 412.672 258.028 412 259.036 412H262.679V413.5C262.679 413.633 262.743 413.76 262.856 413.854C262.97 413.947 263.125 414 263.286 414C263.447 414 263.601 413.947 263.715 413.854C263.829 413.76 263.893 413.633 263.893 413.5V412H272.393V413.5C272.393 413.633 272.457 413.76 272.571 413.854C272.685 413.947 272.839 414 273 414C273.161 414 273.315 413.947 273.429 413.854C273.543 413.76 273.607 413.633 273.607 413.5V412H277.25C278.255 412 279.071 412.672 279.071 413.5V417Z" fill="black"/>
<path opacity="0.5" d="M285.562 503H281.92V501.5C281.92 501.367 281.856 501.24 281.742 501.146C281.628 501.053 281.474 501 281.312 501C281.151 501 280.997 501.053 280.883 501.146C280.769 501.24 280.705 501.367 280.705 501.5V503H272.205V501.5C272.205 501.367 272.141 501.24 272.028 501.146C271.914 501.053 271.759 501 271.598 501C271.437 501 271.283 501.053 271.169 501.146C271.055 501.24 270.991 501.367 270.991 501.5V503H267.348C266.543 503.001 265.772 503.264 265.203 503.733C264.634 504.202 264.313 504.837 264.312 505.5V518.5C264.313 519.163 264.634 519.798 265.203 520.267C265.772 520.736 266.543 520.999 267.348 521H285.562C286.367 520.999 287.139 520.736 287.708 520.267C288.278 519.798 288.598 519.163 288.598 518.5V505.5C288.598 504.837 288.278 504.202 287.708 503.733C287.139 503.264 286.367 503.001 285.562 503ZM287.384 518.5C287.384 519.328 286.568 520 285.562 520H267.348C266.34 520 265.527 519.328 265.527 518.5V510H287.384V518.5ZM287.384 509H265.527V505.5C265.527 504.672 266.34 504 267.348 504H270.991V505.5C270.991 505.633 271.055 505.76 271.169 505.854C271.283 505.947 271.437 506 271.598 506C271.759 506 271.914 505.947 272.028 505.854C272.141 505.76 272.205 505.633 272.205 505.5V504H280.705V505.5C280.705 505.633 280.769 505.76 280.883 505.854C280.997 505.947 281.151 506 281.312 506C281.474 506 281.628 505.947 281.742 505.854C281.856 505.76 281.92 505.633 281.92 505.5V504H285.562C286.568 504 287.384 504.672 287.384 505.5V509Z" fill="black"/>
<path opacity="0.5" d="M358.863 64L356.75 63L361.607 56H368.893C369.537 56 370.155 55.7893 370.61 55.4142C371.066 55.0391 371.321 54.5304 371.321 54V42C371.321 41.4696 371.066 40.9609 370.61 40.5858C370.155 40.2107 369.537 40 368.893 40H344.607C343.963 40 343.345 40.2107 342.89 40.5858C342.434 40.9609 342.179 41.4696 342.179 42V54C342.179 54.5304 342.434 55.0391 342.89 55.4142C343.345 55.7893 343.963 56 344.607 56H355.536V58H344.607C343.319 58 342.084 57.5786 341.173 56.8284C340.262 56.0783 339.75 55.0609 339.75 54V42C339.75 40.9391 340.262 39.9217 341.173 39.1716C342.084 38.4214 343.319 38 344.607 38H368.893C370.181 38 371.416 38.4214 372.327 39.1716C373.238 39.9217 373.75 40.9391 373.75 42V54C373.75 55.0609 373.238 56.0783 372.327 56.8284C371.416 57.5786 370.181 58 368.893 58H363.016L358.863 64Z" fill="black"/>
<path opacity="0.5" d="M358.863 156L356.75 155L361.607 148H368.893C369.537 148 370.155 147.789 370.61 147.414C371.066 147.039 371.321 146.53 371.321 146V134C371.321 133.47 371.066 132.961 370.61 132.586C370.155 132.211 369.537 132 368.893 132H344.607C343.963 132 343.345 132.211 342.89 132.586C342.434 132.961 342.179 133.47 342.179 134V146C342.179 146.53 342.434 147.039 342.89 147.414C343.345 147.789 343.963 148 344.607 148H355.536V150H344.607C343.319 150 342.084 149.579 341.173 148.828C340.262 148.078 339.75 147.061 339.75 146V134C339.75 132.939 340.262 131.922 341.173 131.172C342.084 130.421 343.319 130 344.607 130H368.893C370.181 130 371.416 130.421 372.327 131.172C373.238 131.922 373.75 132.939 373.75 134V146C373.75 147.061 373.238 148.078 372.327 148.828C371.416 149.579 370.181 150 368.893 150H363.016L358.863 156Z" fill="black"/>
<path opacity="0.5" d="M355.863 247L353.75 246L358.607 239H365.893C366.537 239 367.155 238.789 367.61 238.414C368.066 238.039 368.321 237.53 368.321 237V225C368.321 224.47 368.066 223.961 367.61 223.586C367.155 223.211 366.537 223 365.893 223H341.607C340.963 223 340.345 223.211 339.89 223.586C339.434 223.961 339.179 224.47 339.179 225V237C339.179 237.53 339.434 238.039 339.89 238.414C340.345 238.789 340.963 239 341.607 239H352.536V241H341.607C340.319 241 339.084 240.579 338.173 239.828C337.262 239.078 336.75 238.061 336.75 237V225C336.75 223.939 337.262 222.922 338.173 222.172C339.084 221.421 340.319 221 341.607 221H365.893C367.181 221 368.416 221.421 369.327 222.172C370.238 222.922 370.75 223.939 370.75 225V237C370.75 238.061 370.238 239.078 369.327 239.828C368.416 240.579 367.181 241 365.893 241H360.016L355.863 247Z" fill="black"/>
<path opacity="0.5" d="M353.863 340L351.75 339L356.607 332H363.893C364.537 332 365.155 331.789 365.61 331.414C366.066 331.039 366.321 330.53 366.321 330V318C366.321 317.47 366.066 316.961 365.61 316.586C365.155 316.211 364.537 316 363.893 316H339.607C338.963 316 338.345 316.211 337.89 316.586C337.434 316.961 337.179 317.47 337.179 318V330C337.179 330.53 337.434 331.039 337.89 331.414C338.345 331.789 338.963 332 339.607 332H350.536V334H339.607C338.319 334 337.084 333.579 336.173 332.828C335.262 332.078 334.75 331.061 334.75 330V318C334.75 316.939 335.262 315.922 336.173 315.172C337.084 314.421 338.319 314 339.607 314H363.893C365.181 314 366.416 314.421 367.327 315.172C368.238 315.922 368.75 316.939 368.75 318V330C368.75 331.061 368.238 332.078 367.327 332.828C366.416 333.579 365.181 334 363.893 334H358.016L353.863 340Z" fill="black"/>
<path opacity="0.5" d="M358.863 523L356.75 522L361.607 515H368.893C369.537 515 370.155 514.789 370.61 514.414C371.066 514.039 371.321 513.53 371.321 513V501C371.321 500.47 371.066 499.961 370.61 499.586C370.155 499.211 369.537 499 368.893 499H344.607C343.963 499 343.345 499.211 342.89 499.586C342.434 499.961 342.179 500.47 342.179 501V513C342.179 513.53 342.434 514.039 342.89 514.414C343.345 514.789 343.963 515 344.607 515H355.536V517H344.607C343.319 517 342.084 516.579 341.173 515.828C340.262 515.078 339.75 514.061 339.75 513V501C339.75 499.939 340.262 498.922 341.173 498.172C342.084 497.421 343.319 497 344.607 497H368.893C370.181 497 371.416 497.421 372.327 498.172C373.238 498.922 373.75 499.939 373.75 501V513C373.75 514.061 373.238 515.078 372.327 515.828C371.416 516.579 370.181 517 368.893 517H363.016L358.863 523Z" fill="black"/>
<path d="M358.863 434L356.75 433L361.607 426H368.893C369.537 426 370.155 425.789 370.61 425.414C371.066 425.039 371.321 424.53 371.321 424V412C371.321 411.47 371.066 410.961 370.61 410.586C370.155 410.211 369.537 410 368.893 410H344.607C343.963 410 343.345 410.211 342.89 410.586C342.434 410.961 342.179 411.47 342.179 412V424C342.179 424.53 342.434 425.039 342.89 425.414C343.345 425.789 343.963 426 344.607 426H355.536V428H344.607C343.319 428 342.084 427.579 341.173 426.828C340.262 426.078 339.75 425.061 339.75 424V412C339.75 410.939 340.262 409.922 341.173 409.172C342.084 408.421 343.319 408 344.607 408H368.893C370.181 408 371.416 408.421 372.327 409.172C373.238 409.922 373.75 410.939 373.75 412V424C373.75 425.061 373.238 426.078 372.327 426.828C371.416 427.579 370.181 428 368.893 428H363.016L358.863 434Z" fill="#21E279"/>
<path opacity="0.5" d="M347.036 44H366.464V46H347.036V44Z" fill="black"/>
<path opacity="0.5" d="M347.036 136H366.464V138H347.036V136Z" fill="black"/>
<path opacity="0.5" d="M344.036 227H363.464V229H344.036V227Z" fill="black"/>
<path opacity="0.5" d="M342.036 320H361.464V322H342.036V320Z" fill="black"/>
<path opacity="0.5" d="M347.036 503H366.464V505H347.036V503Z" fill="black"/>
<path d="M347.036 414H366.464V416H347.036V414Z" fill="#21E279"/>
<path opacity="0.5" d="M347.036 50H359.179V52H347.036V50Z" fill="black"/>
<path opacity="0.5" d="M347.036 142H359.179V144H347.036V142Z" fill="black"/>
<path opacity="0.5" d="M344.036 233H356.179V235H344.036V233Z" fill="black"/>
<path opacity="0.5" d="M342.036 326H354.179V328H342.036V326Z" fill="black"/>
<path opacity="0.5" d="M347.036 509H359.179V511H347.036V509Z" fill="black"/>
<path d="M347.036 420H359.179V422H347.036V420Z" fill="#21E279"/>
<rect x="18" y="62" width="30" height="3" rx="1.5" fill="#21E279"/>
<rect x="90" y="154" width="30" height="3" rx="1.5" fill="#21E279"/>
<rect x="175" y="247" width="30" height="3" rx="1.5" fill="#21E279"/>
<rect x="250" y="338" width="30" height="3" rx="1.5" fill="#21E279"/>
<rect x="338" y="438" width="30" height="3" rx="1.5" fill="#21E279"/>
<rect x="409" y="523" width="30" height="3" rx="1.5" fill="#21E279"/>
<path d="M45.2857 56.2487V48.4227C45.2858 47.8782 45.1509 47.3395 44.8893 46.8394C44.6276 46.3394 44.2448 45.8886 43.7642 45.5147L34.8113 38.5467C34.3604 38.1956 33.7634 38 33.1429 38C32.5223 38 31.9253 38.1956 31.4744 38.5467L22.5215 45.5147C22.0409 45.8886 21.6581 46.3394 21.3965 46.8394C21.1348 47.3395 20.9999 47.8782 21 48.4227V56.2487C21 56.7791 21.2559 57.2878 21.7113 57.6629C22.1668 58.038 22.7845 58.2487 23.4286 58.2487H42.8571C43.5012 58.2487 44.119 58.038 44.5744 57.6629C45.0298 57.2878 45.2857 56.7791 45.2857 56.2487Z" stroke="#21E279" stroke-width="2" stroke-linecap="round" stroke-linejoin="round"/>
<path d="M45.2857 148.249V140.423C45.2858 139.878 45.1509 139.339 44.8893 138.839C44.6276 138.339 44.2448 137.889 43.7642 137.515L34.8113 130.547C34.3604 130.196 33.7634 130 33.1429 130C32.5223 130 31.9253 130.196 31.4744 130.547L22.5215 137.515C22.0409 137.889 21.6581 138.339 21.3965 138.839C21.1348 139.339 20.9999 139.878 21 140.423V148.249C21 148.779 21.2559 149.288 21.7113 149.663C22.1668 150.038 22.7845 150.249 23.4286 150.249H42.8571C43.5012 150.249 44.119 150.038 44.5744 149.663C45.0298 149.288 45.2857 148.779 45.2857 148.249Z" stroke="#7F7F7F" stroke-width="2" stroke-linecap="round" stroke-linejoin="round"/>
<path d="M42.2857 240.249V232.423C42.2858 231.878 42.1509 231.339 41.8893 230.839C41.6276 230.339 41.2448 229.889 40.7642 229.515L31.8113 222.547C31.3604 222.196 30.7634 222 30.1429 222C29.5223 222 28.9253 222.196 28.4744 222.547L19.5215 229.515C19.0409 229.889 18.6581 230.339 18.3965 230.839C18.1348 231.339 17.9999 231.878 18 232.423V240.249C18 240.779 18.2559 241.288 18.7113 241.663C19.1668 242.038 19.7845 242.249 20.4286 242.249H39.8571C40.5012 242.249 41.119 242.038 41.5744 241.663C42.0298 241.288 42.2857 240.779 42.2857 240.249Z" stroke="#7F7F7F" stroke-width="2" stroke-linecap="round" stroke-linejoin="round"/>
<path d="M45.2857 335.249V327.423C45.2858 326.878 45.1509 326.339 44.8893 325.839C44.6276 325.339 44.2448 324.889 43.7642 324.515L34.8113 317.547C34.3604 317.196 33.7634 317 33.1429 317C32.5223 317 31.9253 317.196 31.4744 317.547L22.5215 324.515C22.0409 324.889 21.6581 325.339 21.3965 325.839C21.1348 326.339 20.9999 326.878 21 327.423V335.249C21 335.779 21.2559 336.288 21.7113 336.663C22.1668 337.038 22.7845 337.249 23.4286 337.249H42.8571C43.5012 337.249 44.119 337.038 44.5744 336.663C45.0298 336.288 45.2857 335.779 45.2857 335.249Z" stroke="#7F7F7F" stroke-width="2" stroke-linecap="round" stroke-linejoin="round"/>
<path d="M45.2857 426.249V418.423C45.2858 417.878 45.1509 417.339 44.8893 416.839C44.6276 416.339 44.2448 415.889 43.7642 415.515L34.8113 408.547C34.3604 408.196 33.7634 408 33.1429 408C32.5223 408 31.9253 408.196 31.4744 408.547L22.5215 415.515C22.0409 415.889 21.6581 416.339 21.3965 416.839C21.1348 417.339 20.9999 417.878 21 418.423V426.249C21 426.779 21.2559 427.288 21.7113 427.663C22.1668 428.038 22.7845 428.249 23.4286 428.249H42.8571C43.5012 428.249 44.119 428.038 44.5744 427.663C45.0298 427.288 45.2857 426.779 45.2857 426.249Z" stroke="#7F7F7F" stroke-width="2" stroke-linecap="round" stroke-linejoin="round"/>
<path d="M45.2857 519.249V511.423C45.2858 510.878 45.1509 510.339 44.8893 509.839C44.6276 509.339 44.2448 508.889 43.7642 508.515L34.8113 501.547C34.3604 501.196 33.7634 501 33.1429 501C32.5223 501 31.9253 501.196 31.4744 501.547L22.5215 508.515C22.0409 508.889 21.6581 509.339 21.3965 509.839C21.1348 510.339 20.9999 510.878 21 511.423V519.249C21 519.779 21.2559 520.288 21.7113 520.663C22.1668 521.038 22.7845 521.249 23.4286 521.249H42.8571C43.5012 521.249 44.119 521.038 44.5744 520.663C45.0298 520.288 45.2857 519.779 45.2857 519.249Z" stroke="#7F7F7F" stroke-width="2" stroke-linecap="round" stroke-linejoin="round"/>
<defs>
<filter id="filter0_d_223_18" x="3" y="5" width="448" height="75" filterUnits="userSpaceOnUse" color-interpolation-filters="sRGB">
<feFlood flood-opacity="0" result="BackgroundImageFix"/>
<feColorMatrix in="SourceAlpha" type="matrix" values="0 0 0 0 0 0 0 0 0 0 0 0 0 0 0 0 0 0 127 0" result="hardAlpha"/>
<feOffset dy="-5"/>
<feGaussianBlur stdDeviation="5"/>
<feComposite in2="hardAlpha" operator="out"/>
<feColorMatrix type="matrix" values="0 0 0 0 0.898039 0 0 0 0 0.898039 0 0 0 0 0.898039 0 0 0 1 0"/>
<feBlend mode="normal" in2="BackgroundImageFix" result="effect1_dropShadow_223_18"/>
<feBlend mode="normal" in="SourceGraphic" in2="effect1_dropShadow_223_18" result="shape"/>
</filter>
<filter id="filter1_d_223_18" x="3" y="98" width="448" height="75" filterUnits="userSpaceOnUse" color-interpolation-filters="sRGB">
<feFlood flood-opacity="0" result="BackgroundImageFix"/>
<feColorMatrix in="SourceAlpha" type="matrix" values="0 0 0 0 0 0 0 0 0 0 0 0 0 0 0 0 0 0 127 0" result="hardAlpha"/>
<feOffset dy="-5"/>
<feGaussianBlur stdDeviation="5"/>
<feComposite in2="hardAlpha" operator="out"/>
<feColorMatrix type="matrix" values="0 0 0 0 0.898039 0 0 0 0 0.898039 0 0 0 0 0.898039 0 0 0 1 0"/>
<feBlend mode="normal" in2="BackgroundImageFix" result="effect1_dropShadow_223_18"/>
<feBlend mode="normal" in="SourceGraphic" in2="effect1_dropShadow_223_18" result="shape"/>
</filter>
<filter id="filter2_d_223_18" x="3" y="191" width="448" height="75" filterUnits="userSpaceOnUse" color-interpolation-filters="sRGB">
<feFlood flood-opacity="0" result="BackgroundImageFix"/>
<feColorMatrix in="SourceAlpha" type="matrix" values="0 0 0 0 0 0 0 0 0 0 0 0 0 0 0 0 0 0 127 0" result="hardAlpha"/>
<feOffset dy="-5"/>
<feGaussianBlur stdDeviation="5"/>
<feComposite in2="hardAlpha" operator="out"/>
<feColorMatrix type="matrix" values="0 0 0 0 0.898039 0 0 0 0 0.898039 0 0 0 0 0.898039 0 0 0 1 0"/>
<feBlend mode="normal" in2="BackgroundImageFix" result="effect1_dropShadow_223_18"/>
<feBlend mode="normal" in="SourceGraphic" in2="effect1_dropShadow_223_18" result="shape"/>
</filter>
<filter id="filter3_d_223_18" x="3" y="284" width="448" height="75" filterUnits="userSpaceOnUse" color-interpolation-filters="sRGB">
<feFlood flood-opacity="0" result="BackgroundImageFix"/>
<feColorMatrix in="SourceAlpha" type="matrix" values="0 0 0 0 0 0 0 0 0 0 0 0 0 0 0 0 0 0 127 0" result="hardAlpha"/>
<feOffset dy="-5"/>
<feGaussianBlur stdDeviation="5"/>
<feComposite in2="hardAlpha" operator="out"/>
<feColorMatrix type="matrix" values="0 0 0 0 0.898039 0 0 0 0 0.898039 0 0 0 0 0.898039 0 0 0 1 0"/>
<feBlend mode="normal" in2="BackgroundImageFix" result="effect1_dropShadow_223_18"/>
<feBlend mode="normal" in="SourceGraphic" in2="effect1_dropShadow_223_18" result="shape"/>
</filter>
<filter id="filter4_d_223_18" x="3" y="377" width="448" height="75" filterUnits="userSpaceOnUse" color-interpolation-filters="sRGB">
<feFlood flood-opacity="0" result="BackgroundImageFix"/>
<feColorMatrix in="SourceAlpha" type="matrix" values="0 0 0 0 0 0 0 0 0 0 0 0 0 0 0 0 0 0 127 0" result="hardAlpha"/>
<feOffset dy="-5"/>
<feGaussianBlur stdDeviation="5"/>
<feComposite in2="hardAlpha" operator="out"/>
<feColorMatrix type="matrix" values="0 0 0 0 0.898039 0 0 0 0 0.898039 0 0 0 0 0.898039 0 0 0 1 0"/>
<feBlend mode="normal" in2="BackgroundImageFix" result="effect1_dropShadow_223_18"/>
<feBlend mode="normal" in="SourceGraphic" in2="effect1_dropShadow_223_18" result="shape"/>
</filter>
<filter id="filter5_d_223_18" x="3" y="470" width="448" height="75" filterUnits="userSpaceOnUse" color-interpolation-filters="sRGB">
<feFlood flood-opacity="0" result="BackgroundImageFix"/>
<feColorMatrix in="SourceAlpha" type="matrix" values="0 0 0 0 0 0 0 0 0 0 0 0 0 0 0 0 0 0 127 0" result="hardAlpha"/>
<feOffset dy="-5"/>
<feGaussianBlur stdDeviation="5"/>
<feComposite in2="hardAlpha" operator="out"/>
<feColorMatrix type="matrix" values="0 0 0 0 0.898039 0 0 0 0 0.898039 0 0 0 0 0.898039 0 0 0 1 0"/>
<feBlend mode="normal" in2="BackgroundImageFix" result="effect1_dropShadow_223_18"/>
<feBlend mode="normal" in="SourceGraphic" in2="effect1_dropShadow_223_18" result="shape"/>
</filter>
</defs>
</svg>
