<svg width="319" height="263" viewBox="0 0 319 263" fill="none" xmlns="http://www.w3.org/2000/svg">
<path d="M285.757 210.34L284.181 209.348C305.146 186.679 316.231 159.598 316.231 131.021C316.231 86.7514 289.186 46.0233 243.883 22.0719L244.958 20.698C290.836 44.9394 318.214 86.1865 318.214 131.021C318.214 159.949 306.981 187.381 285.757 210.34Z" fill="#6B9BA5"/>
<path d="M159.152 262.015C71.4371 262.015 0.0713501 203.243 0.0713501 131.008C0.0713501 58.7717 71.4371 0 159.152 0V1.63338C72.5307 1.63338 2.0733 59.6724 2.0733 130.992C2.0733 202.327 72.5493 260.351 159.152 260.351C185.326 260.351 211.24 254.947 234.077 244.719L235.022 246.154C211.888 256.55 185.641 262.015 159.152 262.015Z" fill="#6B9BA5"/>
<path d="M83.875 231.854C41.0185 210.116 15.4381 172.41 15.4381 131.01H19.4234C19.4234 171.265 44.2994 207.917 85.9696 229.06L83.875 231.854Z" fill="#6B9BA5"/>
<path d="M159.152 249.378C143.396 249.378 127.918 247.287 113.126 243.18L114.405 240.081C128.789 244.081 143.841 246.111 159.17 246.111C231.148 246.111 290.928 201.704 298.176 142.81L302.143 143.146C294.654 203.689 233.187 249.378 159.152 249.378Z" fill="#6B9BA5"/>
<path d="M297.101 112.626C291.892 85.9269 275.246 61.4565 250.204 43.7334C224.901 25.8118 192.555 15.9504 159.152 15.9504C132.181 15.9504 106.008 22.2855 83.4488 34.2841C57.164 48.2672 37.1074 69.3334 26.9679 93.6054L23.205 92.5369C33.6225 67.578 54.2537 45.9163 81.28 31.5363C104.488 19.2019 131.403 12.6836 159.133 12.6836C193.5 12.6836 226.755 22.8351 252.78 41.2604C278.527 59.4873 295.655 84.6599 301.012 112.122L297.101 112.626Z" fill="#6B9BA5"/>
<path d="M159.152 216.496C101.911 216.496 55.3475 178.149 55.3475 131.01C55.3475 111.928 62.8177 93.8844 76.924 78.8328L80.0752 80.8325C66.5065 95.3194 59.3328 112.661 59.3328 131.01C59.3328 176.333 104.117 213.214 159.152 213.214C168.921 213.214 178.578 212.054 187.828 209.764L188.977 212.909C179.338 215.305 169.292 216.496 159.152 216.496Z" fill="#6B9BA5"/>
<path d="M229.257 194.054L226.569 191.642C247.163 176.102 258.971 154.013 258.971 131.023C258.971 114.842 253.262 99.1797 242.473 85.7309L245.792 83.9296C257.025 97.9127 262.956 114.201 262.956 131.039C262.938 154.929 250.667 177.903 229.257 194.054Z" fill="#6B9BA5"/>
<path d="M221.25 66.6468C203.436 54.9688 181.952 48.8016 159.152 48.8016C139.151 48.8016 119.855 53.656 103.339 62.8457L101.114 60.1285C118.279 50.5724 138.354 45.5348 159.152 45.5348C182.879 45.5348 205.215 51.9463 223.733 64.0975L221.25 66.6468Z" fill="#6B9BA5"/>
<path d="M159.152 201.806C145.175 201.806 131.292 198.981 119.02 193.639L119.947 192.188C131.94 197.409 145.491 200.172 159.133 200.172C196.818 200.172 230.11 179.304 240.101 149.415L242.01 149.857C231.815 180.449 197.727 201.806 159.152 201.806Z" fill="#6B9BA5"/>
<path d="M98.3704 181.09C82.1324 167.718 73.1792 149.934 73.1792 131.02C73.1792 91.9862 111.735 60.2189 159.152 60.2189C206.55 60.2189 245.124 91.9862 245.124 131.02H243.141C243.141 92.8868 205.475 61.8675 159.17 61.8675C112.866 61.8675 75.1997 92.8868 75.1997 131.02C75.1997 149.491 83.9304 166.863 99.8162 179.93L98.3704 181.09Z" fill="#6B9BA5"/>
<path d="M159.152 175.048C129.66 175.048 105.674 155.294 105.674 131.007C105.674 106.72 129.66 86.9663 159.152 86.9663V90.2484C131.866 90.2484 109.659 108.536 109.659 131.007C109.659 153.478 131.866 171.766 159.152 171.766C186.438 171.766 208.645 153.478 208.645 131.007H212.63C212.611 155.294 188.625 175.048 159.152 175.048Z" fill="#6B9BA5"/>
<path d="M159.152 152.9C144.489 152.9 132.57 143.085 132.57 131.01H134.554C134.554 142.169 145.583 151.251 159.133 151.251C172.684 151.251 183.713 142.169 183.713 131.01C183.713 119.851 172.684 110.768 159.133 110.768C151.607 110.768 144.601 113.546 139.892 118.4L138.335 117.378C143.414 112.126 150.996 109.119 159.133 109.119C173.796 109.119 185.715 118.935 185.715 131.01C185.715 143.085 173.796 152.9 159.152 152.9Z" fill="#6B9BA5"/>
</svg>
